<svg width="41" height="41" viewBox="0 0 41 41" fill="none" xmlns="http://www.w3.org/2000/svg">
<path d="M27.1779 20.7102L41 29.4483V11.603L27.1779 20.7102Z" fill="white"/>
<path d="M0 11.603V29.4483L13.8221 20.7102L0 11.603Z" fill="white"/>
<path d="M38.4375 6.40625H2.56248C1.28379 6.40625 0.269038 7.3595 0.0768509 8.58694L20.5 22.0426L40.9231 8.58694C40.7309 7.3595 39.7162 6.40625 38.4375 6.40625Z" fill="white"/>
<path d="M24.8306 22.2578L21.2047 24.6461C20.9895 24.787 20.746 24.8562 20.5 24.8562C20.254 24.8562 20.0106 24.787 19.7953 24.6461L16.1694 22.2552L0.082016 32.4309C0.279328 33.6481 1.28895 34.5937 2.56252 34.5937H38.4375C39.7111 34.5937 40.7207 33.6481 40.918 32.4309L24.8306 22.2578Z" fill="white"/>
</svg>
