<svg width="59" height="59" viewBox="0 0 59 59" fill="none" xmlns="http://www.w3.org/2000/svg">
<path d="M0 0V19.5898H19.5898V0H0ZM14.9805 14.9805H4.60938V4.60938H14.9805V14.9805Z" fill="white"/>
<path d="M12.0996 7.49023H7.49023V12.0996H12.0996V7.49023Z" fill="white"/>
<path d="M39.4102 0V19.5898H59V0H39.4102ZM54.3906 14.9805H44.0195V4.60938H54.3906V14.9805Z" fill="white"/>
<path d="M51.5098 7.49023H46.9004V12.0996H51.5098V7.49023Z" fill="white"/>
<path d="M0 39.4102V59H19.5898V39.4102H0ZM14.9805 54.3906H4.60938V44.0195H14.9805V54.3906Z" fill="white"/>
<path d="M12.0996 46.9004H7.49023V51.5098H12.0996V46.9004Z" fill="white"/>
<path d="M9.21875 22.7012H4.60938V27.3105H9.21875V22.7012Z" fill="white"/>
<path d="M13.8281 31.9199V27.3105H9.21875V31.9199H13.7129V36.5293H18.3223V31.9199H13.8281Z" fill="white"/>
<path d="M36.875 8.87305H32.2656V13.4824H36.875V8.87305Z" fill="white"/>
<path d="M27.6562 4.60938H23.0469V13.4824H27.6562V4.60938Z" fill="white"/>
<path d="M32.2656 0H27.6562V4.60938H32.2656V0Z" fill="white"/>
<path d="M27.6562 13.4824V18.0918H23.0469V22.7012H32.2656V13.4824H27.6562Z" fill="white"/>
<path d="M32.2656 40.9082V36.4141H27.6562V27.3105H23.0469V36.5293H27.6562V41.0234H32.2656V45.5176H41.4844V40.9082H32.2656Z" fill="white"/>
<path d="M36.875 22.7012H32.2656V31.9199H36.875V22.7012Z" fill="white"/>
<path d="M54.3906 27.1953V22.7012H45.9785V27.3105H41.4844V31.9199H46.0938V36.4141H59V27.1953H54.3906ZM54.3906 31.8047H46.0938V27.3105H54.3906V31.8047Z" fill="white"/>
<path d="M59 40.9082H54.3906V50.127H59V40.9082Z" fill="white"/>
<path d="M41.4844 31.9199H36.875V36.5293H41.4844V31.9199Z" fill="white"/>
<path d="M46.0938 45.5176H41.4844V50.127H46.0938V45.5176Z" fill="white"/>
<path d="M50.7031 40.9082H46.0938V45.5176H50.7031V40.9082Z" fill="white"/>
<path d="M46.0938 50.127V59H50.7031V54.7363H54.3906V50.127H46.0938Z" fill="white"/>
<path d="M27.6562 41.0234H23.0469V49.7812H27.6562V41.0234Z" fill="white"/>
<path d="M36.875 54.3906V49.7812H27.6562V59H32.2656V54.3906H36.7598V59H41.3691V54.3906H36.875Z" fill="white"/>
<path d="M23.0469 22.7012H13.8281V27.3105H23.0469V22.7012Z" fill="white"/>
<path d="M4.60938 27.3105H0V36.5293H4.60938V27.3105Z" fill="white"/>
</svg>
